PathFileType	4	(X/Y/Z)	Patient4_TMGait_0pt5_01_left_07.trc.trc
DataRate	CameraRate	NumFrames	NumMarkers	Units	OrigDataRate	OrigDataStartFrame	OrigNumFrames
73.684210526316	73.684210526316	5	33	mm	73.684210526316	71	       141
Frame#	Time	L.ASIS			Sacral			L.Shoulder			Chest			R.Shoulder			Neck			R.ASIS			R.Thigh.Superior			R.Thigh.Lateral			R.Thigh.Inferior			R.Patella			L.Thigh.Superior			L.Thigh.Lateral			L.Thigh.Inferior			L.Patella			L.Shank.Superior			L.Shank.Lateral			L.Shank.Inferior			R.Shank.Superior			R.Shank.Lateral			R.Shank.Inferior			R.Heel			R.Midfoot.Superior			R.Midfoot.Lateral			R.Toe			L.Heel			L.Midfoot.Lateral			L.Midfoot.Superior			L.Toe			L.Elbow			L.Wrist			R.Elbow			R.Wrist			
		X1	Y1	Z1	X2	Y2	Z2	X3	Y3	Z3	X4	Y4	Z4	X5	Y5	Z5	X6	Y6	Z6	X7	Y7	Z7	X8	Y8	Z8	X9	Y9	Z9	X10	Y10	Z10	X11	Y11	Z11	X12	Y12	Z12	X13	Y13	Z13	X14	Y14	Z14	X15	Y15	Z15	X16	Y16	Z16	X17	Y17	Z17	X18	Y18	Z18	X19	Y19	Z19	X20	Y20	Z20	X21	Y21	Z21	X22	Y22	Z22	X23	Y23	Z23	X24	Y24	Z24	X25	Y25	Z25	X26	Y26	Z26	X27	Y27	Z27	X28	Y28	Z28	X29	Y29	Z29	X30	Y30	Z30	X31	Y31	Z31	X32	Y32	Z32	X33	Y33	Z33	

71	10.360000000000	728.021826670185	955.547405073776	307.967255616817	507.142678373275	1003.125589443404	453.496893959044	706.089594738983	1438.972289696971	303.097673728338	791.880874578094	1354.146189946850	467.205575985301	695.610195648398	1421.895106574338	637.882900703836	700.703469053854	1490.551348649342	455.510744131288	725.816498974768	937.823935009671	583.066845755432	794.170570911829	756.360145711208	555.273109099484	741.254121462931	639.516652356808	624.381732938563	823.259859924193	597.937620553761	539.971635725103	851.324180969423	518.402827470942	551.128446331432	741.032021390099	728.665636575564	348.401360365047	636.133203953387	627.701906524879	282.818115081666	691.770461305668	539.377750974001	358.509096677141	676.197972670095	470.086244732890	371.472946266930	642.694712571928	402.673744990271	361.367992789757	544.603768512610	299.874602755465	304.558320408491	568.298785719100	186.569794583860	383.744520011121	842.016604581113	429.974013857869	562.579101452193	800.155436528220	314.118317705487	629.285476158655	869.074588124159	231.465241614227	571.850475099115	780.431522279134	43.096846194564	547.993630850562	943.791009372284	119.716957428567	579.689606267546	869.434361483524	41.040839096522	616.013210100053	1070.250232074043	83.842042951071	595.387071390797	419.466392133997	39.065088283834	412.363212319644	500.041390693338	36.098634945078	339.001856031825	582.049989095735	95.265321925943	372.624133915560	711.370548211533	39.044182805240	354.081693179939	642.602273523927	1113.178359176949	139.893347810021	820.129930413196	932.240100773878	199.325000911497	600.510032314761	1078.764386470721	718.403578816653	646.424726226434	821.738335192292	731.772379742139	
72	10.373571428571	729.625929278754	954.398331684360	309.753695000528	508.705625757114	1001.698217717610	455.268222905211	706.516909712486	1437.717332575322	304.992685562860	792.624093849438	1353.091436792663	469.029428084771	696.481848709169	1420.735582053366	639.856631755743	701.241893062605	1489.406045356045	457.429342915522	727.372676879761	936.289997651122	584.909284761652	795.387653600477	754.505978637154	557.278267812191	740.633358352193	637.141913181074	624.744514151843	823.647882694751	596.128722422994	541.284995794734	849.914379699708	515.993412624781	551.521814789744	741.162577567905	726.898105623661	349.317235379452	634.909681721640	626.938400447733	284.049840470934	690.131270935790	538.004601199001	359.212549060810	674.074685457981	468.493815924667	372.159042816149	639.600015404353	401.543420917776	362.036576081161	540.129152961414	300.013219059901	305.110274248119	562.598365616047	186.254080597421	383.942653625574	840.309506110488	427.080441327939	562.708006608440	796.913934914679	311.626099184048	628.751015254857	864.918236338815	228.522372479900	571.234831310062	773.868356272603	42.605509407842	546.777959687798	938.300337393745	116.227694907847	578.849362297436	862.387696689132	39.745843252274	615.384090844476	1063.875381036266	78.106395846114	595.271230378586	412.645545120579	39.466684067913	412.385090982193	493.263577956424	36.293175787191	339.077018835871	575.367534446027	95.314904279313	372.629055896426	704.604453770825	38.853263483179	354.002756248789	642.335958291153	1112.027069387050	141.775993675165	818.665614943139	929.866052561128	201.407389127638	606.079139202529	1076.450676569177	721.800031947203	659.516519457940	820.963515613223	735.834397571868	
73	10.387142857143	731.223479059028	953.330519433553	311.610929513707	510.332575007696	1000.292043568356	457.271199397845	706.904392819313	1436.486906593105	307.076440480436	793.404067845656	1352.102424366899	471.020247082991	697.410233232867	1419.632423093808	642.010932799343	701.781508849939	1488.311189825399	459.540323412961	729.187527845473	934.814035306772	586.822545666901	797.228580867190	752.984557705682	558.969808960373	740.774370525393	634.985661395346	624.760393039851	824.853866776391	594.604132792972	542.253270398770	849.279420929700	513.540961363330	551.510210853078	741.586212624143	725.263926420203	350.148830530434	634.008900774295	626.175848871532	285.422156414752	689.109564379267	536.658397376074	359.918048144342	672.710044856876	466.791744593830	372.807980168134	637.023404300585	400.350545846159	362.729957686319	535.951304798907	300.304992871670	305.721032967521	557.101480664986	186.016264561551	384.104386331989	838.953142539884	424.115920128426	562.426172015526	793.594812804469	309.307632748980	627.999248150746	860.015587548047	225.373549446820	570.260970173368	765.466487874952	42.347728635687	545.621793313687	931.240120317139	112.432046179398	577.574953279968	853.569086829643	38.618690160929	614.764358647305	1055.917005925264	71.716678061828	594.847817926593	405.848401701922	40.125283086800	412.390108256892	486.518803839334	36.587935401594	339.140440278638	568.790098184463	95.407699994702	372.573869963775	697.879070605478	38.650989549993	353.893924377347	642.127898782271	1110.831000903496	143.892133820661	817.183276696084	927.294690008269	203.430710777432	611.759323673577	1074.293575578492	725.495568317050	673.129994778230	820.665579947331	740.226357757960	
74	10.400714285714	732.776993697927	952.409124888635	313.509113954413	511.991360389065	998.984766128988	459.488939828629	707.258068856087	1435.362635302290	309.350062040551	794.231933480564	1351.233650882948	473.161501065290	698.427137865653	1418.631967245051	644.341517836251	702.348004319497	1487.327585533631	461.853419323032	731.235580658039	933.483965480326	588.767481139578	799.552985853641	751.751024624639	560.327972614143	741.602505233935	633.135795714461	624.549358649606	826.619411026088	593.343622213262	542.852001567553	849.274837199159	511.153448099392	551.140904721042	742.314140758138	723.850848104310	350.916144510591	633.502449791362	625.441552199358	286.930782254815	688.805089001153	535.381809166983	360.625087450717	672.221450108564	465.007644546794	373.383432065459	635.057477486438	399.126385417989	363.424259545234	532.144961445500	300.815065554917	306.391703843350	551.878232076972	185.908441950150	384.209336226937	837.944274966038	421.248445361457	561.820910501105	790.487671000458	307.235710031100	627.164514548157	854.819129446411	222.226994899835	569.034264857883	756.103207039633	42.223176309654	544.630662897201	923.315231880700	108.672236141198	575.997748758106	843.893823745870	37.695440555274	614.207079235472	1047.176103557267	65.320129221514	594.147795444326	399.107298884946	41.158704019952	412.373521389607	479.826807392008	37.033420976433	339.188311753854	562.373403637736	95.555193552615	372.438239011499	691.201131132901	38.444616274027	353.758963661536	641.989642347256	1109.646341462800	146.281147731727	815.684167846822	924.579567441087	205.429889076861	617.529459271938	1072.353523808537	729.461863785072	687.145883783112	820.918675351153	744.892497696821	
75	10.414285714286	734.249881962803	951.699924221011	315.427715486610	513.652214849295	997.855865296372	461.902826549814	707.584671159391	1434.432398744651	311.804091754812	795.113749452335	1350.544593610884	475.429075842696	699.560024730650	1417.788940787000	646.835971444395	702.964205646881	1486.519395889817	464.367099340087	733.476363664800	932.387732786592	590.715284983297	802.194038502419	750.782277481455	561.351781682929	743.039371028894	631.679912870154	624.242464280085	828.685001822040	592.348520482109	543.072794184911	849.743811516099	508.947979997772	550.496553104971	743.359085561319	722.745346482566	351.653038122446	633.472845193349	624.765203324879	288.567646862182	689.324435928886	534.222169311724	361.332401089553	672.726117947506	463.180536169317	373.844097517455	633.807207850542	397.911791947064	364.087814873344	528.803836804391	301.618168759350	307.119178745379	547.014955572260	185.993646562356	384.232208827618	837.243537654919	418.635165081523	561.006385133245	787.777258791864	305.491489908850	626.371915819968	849.672169772816	219.287011587900	567.680317847484	746.511002867584	42.173800636746	543.864471394743	915.105453966373	105.255341915060	574.292676780175	834.102864333466	37.001427461640	613.750743132501	1038.291689485747	59.464737681604	593.269140834678	392.470558973116	42.711141122188	412.329508615544	473.214767874949	37.697900539906	339.216643476737	556.185622875877	95.771537507962	372.201176100488	684.573283664281	38.239749357842	353.607365436965	641.924593729204	1108.542264598647	148.974715761559	814.158250966037	921.784801600842	207.433570703994	623.382763321864	1070.692725375008	733.665005138690	701.451078018405	821.790683122475	749.769053400038	
